<svg xmlns="http://www.w3.org/2000/svg" viewBox="0 0 1600 960" role="img" aria-labelledby="title desc">
  <title id="title">Portable UTF-8 medieval coding illustration</title>
  <desc id="desc">A parchment scroll with rune-like glyphs, glowing code lines and a brass compass on a warm medieval background.</desc>
  <defs>
    <linearGradient id="bg" x1="0" y1="0" x2="1" y2="1">
      <stop offset="0%" stop-color="#120c08"/>
      <stop offset="45%" stop-color="#4a2d18"/>
      <stop offset="100%" stop-color="#8f6233"/>
    </linearGradient>
    <radialGradient id="glow" cx="50%" cy="40%" r="60%">
      <stop offset="0%" stop-color="#f4d8a6" stop-opacity="0.75"/>
      <stop offset="100%" stop-color="#f4d8a6" stop-opacity="0"/>
    </radialGradient>
    <linearGradient id="scroll" x1="0" y1="0" x2="1" y2="1">
      <stop offset="0%" stop-color="#f0ddb8"/>
      <stop offset="100%" stop-color="#caa26d"/>
    </linearGradient>
    <filter id="shadow" x="-20%" y="-20%" width="140%" height="140%">
      <feDropShadow dx="0" dy="18" stdDeviation="22" flood-color="#000" flood-opacity="0.55"/>
    </filter>
  </defs>
  <rect width="1600" height="960" fill="url(#bg)"/>
  <rect width="1600" height="960" fill="url(#glow)"/>
  <g opacity="0.22" stroke="#f3d69f" stroke-width="6" fill="none">
    <path d="M1140 120c120 36 210 130 264 256"/>
    <path d="M1210 84c56 22 98 48 152 94"/>
    <circle cx="1270" cy="220" r="150"/>
    <circle cx="1270" cy="220" r="92"/>
    <path d="M1270 74v292M1124 220h292M1164 114l212 212M1164 326l212-212"/>
  </g>
  <g opacity="0.15" fill="#24140d">
    <path d="M0 760c182-52 316-42 460 20s262 78 420 28 304-50 720 34V960H0z"/>
    <path d="M0 650c210-40 404 18 574 68s310 58 492 10 314-58 534 0V960H0z"/>
  </g>
  <g filter="url(#shadow)">
    <rect x="244" y="150" width="840" height="600" rx="26" fill="url(#scroll)" stroke="#6b4222" stroke-width="18"/>
    <rect x="286" y="194" width="756" height="510" rx="14" fill="#f3e4c4" opacity="0.95" stroke="#7d4d2b" stroke-dasharray="14 14" stroke-width="4"/>
    <circle cx="294" cy="452" r="88" fill="#9c6736"/>
    <circle cx="1034" cy="452" r="88" fill="#9c6736"/>
    <circle cx="294" cy="452" r="56" fill="#704321"/>
    <circle cx="1034" cy="452" r="56" fill="#704321"/>
  </g>
  <g fill="#4a2d18" opacity="0.92">
    <text x="392" y="320" font-size="104" font-family="Georgia, serif" font-weight="700">ᚠ ᚢ ᛏ ᚠ ᛟ</text>
    <text x="392" y="418" font-size="80" font-family="Georgia, serif">UTF-8  •  unicode  •  clean text</text>
    <text x="392" y="524" font-size="56" font-family="monospace">mb_strtoupper()  →  portable_utf8()</text>
    <text x="392" y="602" font-size="56" font-family="monospace">normalize  •  trim  •  substr  •  width</text>
  </g>
  <g opacity="0.6">
    <path d="M1144 624c70-76 150-98 244-102 38 74 24 144-12 206-116 20-190-6-262-104z" fill="#1d120c"/>
    <path d="M1198 618c50-44 94-56 166-58 24 52 16 96-10 142-78 14-130-4-182-84z" fill="#f0d7a4" opacity="0.8"/>
    <path d="M1268 580v118M1212 640h112M1234 604l68 72M1234 676l68-72" stroke="#6e4625" stroke-width="18" stroke-linecap="round"/>
  </g>
  <g fill="#f7dd9f" opacity="0.25">
    <circle cx="178" cy="140" r="5"/><circle cx="226" cy="184" r="4"/><circle cx="1450" cy="130" r="5"/>
    <circle cx="1382" cy="204" r="4"/><circle cx="134" cy="812" r="5"/><circle cx="1480" cy="804" r="4"/>
  </g>
</svg>